<?xml version="1.0" encoding="utf-8"?>
<!-- Generator: Adobe Illustrator 16.0.0, SVG Export Plug-In . SVG Version: 6.00 Build 0)  -->
<!DOCTYPE svg PUBLIC "-//W3C//DTD SVG 1.1//EN" "http://www.w3.org/Graphics/SVG/1.1/DTD/svg11.dtd">
<svg version="1.1" id="Layer_1" xmlns="http://www.w3.org/2000/svg" xmlns:xlink="http://www.w3.org/1999/xlink" x="0px" y="0px"
	 width="800px" height="292.953px" viewBox="0 0 800 292.953" enable-background="new 0 0 800 292.953" xml:space="preserve">
<g>
	<path fill="#EF3E35" d="M761.155,193.275c-2.908,1.647-5.818,3.563-8.729,4.928c-8.746,4.104-17.742,5.205-25.684,5.205
		c-8.473,0-21.709-0.553-35.205-10.676c-18.797-13.677-27.004-37.216-27.004-57.736c0-42.413,33.361-63.215,60.627-63.215
		c9.521,0,19.324,2.464,27.266,7.667c13.234,9.026,16.68,20.793,18.533,27.089l-62.203,25.993l-20.389,1.646
		c6.617,34.747,29.395,55.001,54.543,55.001c13.494,0,23.301-4.918,32.301-9.572L761.155,193.275L761.155,193.275z M736.274,111.739
		c5.023-1.914,7.676-3.555,7.676-7.388c0-10.946-11.904-23.533-26.205-23.533c-10.588,0-30.439,8.481-30.439,38.039
		c0,4.649,0.527,9.57,0.795,14.499L736.274,111.739L736.274,111.739z"/>
	<path fill="#2FB457" d="M658.164,199.293h-46.854c6.086-8.19,7.148-9.018,7.148-14.481v-44.606c0-21.344,0.266-51.722,1.053-80.176
		c0.27-13.958,1.33-31.471,1.592-44.059h-20.645l19.854-9.853h37.852c-8.201,4.926-10.854,6.568-11.904,16.149
		c-2.119,21.064-2.383,54.446-2.383,93.307v63.21c0,10.674,1.846,12.311,10.588,13.133c4.498,0.543,9.002,0.82,13.5,1.365
		L658.164,199.293L658.164,199.293z"/>
	<path fill="#0075BF" d="M571.346,85.199c6.078,5.199,18.787,16.145,18.787,36.938c0,20.249-11.121,29.82-22.232,38.865
		c-3.436,3.552-7.416,7.381-7.416,13.404c0,6.021,3.98,9.309,6.883,11.771l9.541,7.656c11.648,10.13,22.229,19.428,22.229,38.304
		c0,25.724-24.088,51.72-69.621,51.72c-38.377,0-56.918-18.88-56.918-39.127c0-9.863,4.768-23.813,20.395-33.392
		c16.406-10.394,38.646-11.759,50.555-12.578c-3.707-4.927-7.936-10.13-7.936-18.603c0-4.66,1.324-7.394,2.65-10.678
		c-2.918,0.271-5.822,0.545-8.469,0.545c-28.068,0-43.945-21.625-43.945-42.967c0-12.588,5.561-26.545,16.938-36.665
		c15.092-12.86,33.094-15.051,47.391-15.051h54.529l-16.938,9.848L571.346,85.199L571.346,85.199z M552.551,206.681
		c-2.125-0.274-3.445-0.274-6.088-0.274c-2.383,0-16.67,0.547-27.799,4.39c-5.82,2.187-22.76,8.749-22.76,28.182
		c0,19.418,18.27,33.376,46.588,33.376c25.418,0,38.92-12.583,38.92-29.553C581.412,228.861,572.666,221.459,552.551,206.681
		L552.551,206.681z M560.233,154.705c6.084-6.299,6.613-15.061,6.613-19.981c0-19.7-11.383-50.35-33.357-50.35
		c-6.893,0-14.301,3.556-18.537,9.031c-4.494,5.747-5.818,13.138-5.818,20.25c0,18.33,10.326,48.712,33.084,48.712
		C548.846,162.367,555.99,159.068,560.233,154.705L560.233,154.705z"/>
	<path fill="#FFDF1C" d="M407.211,202.855c-42.086,0-64.59-33.934-64.59-64.57c0-35.844,28.325-66.5,68.553-66.5
		c38.92,0,63.277,31.472,63.277,64.584C474.451,168.666,450.367,202.855,407.211,202.855L407.211,202.855z M440.313,180.691
		c6.354-8.759,7.936-19.703,7.936-30.381c0-24.079-11.129-70.052-43.949-70.052c-8.733,0-17.47,3.561-23.821,9.309
		c-10.315,9.575-12.178,21.619-12.178,33.379c0,27.094,12.976,71.694,45.006,71.694
		C423.615,194.654,434.227,189.451,440.313,180.691L440.313,180.691z"/>
	<path fill="#EF3E35" d="M266.381,202.855c-42.096,0-64.6-33.934-64.6-64.57c0-35.844,28.325-66.5,68.566-66.5
		c38.914,0,63.267,31.472,63.267,64.584C333.619,168.666,309.533,202.855,266.381,202.855L266.381,202.855z M299.467,180.691
		c6.356-8.759,7.943-19.703,7.943-30.381c0-24.079-11.119-70.052-43.941-70.052c-8.737,0-17.475,3.561-23.83,9.309
		c-10.323,9.575-12.178,21.619-12.178,33.379c0,27.094,12.972,71.694,45.01,71.694C282.792,194.654,293.379,189.451,299.467,180.691
		L299.467,180.691z"/>
	<path fill="#0075BF" d="M184.951,193.302l-35.491,8.461c-14.396,2.315-27.301,4.366-40.951,4.366
		c-68.495,0-94.555-52.069-94.555-92.864c0-49.768,36.979-95.94,100.267-95.94c13.403,0,26.313,2.057,37.972,5.388
		c18.613,5.388,27.305,12.057,32.76,15.913l-20.6,20.263l-8.682,2.052l6.201-10.263c-8.44-8.464-23.831-24.105-53.111-24.105
		c-39.22,0-68.751,30.784-68.751,75.678c0,48.225,33.757,93.636,87.856,93.636c15.887,0,24.073-3.331,31.52-6.412v-41.297
		l-37.475,2.048l19.854-11.022h52.616l-6.451,6.416c-1.738,1.526-1.988,2.043-2.488,4.092c-0.243,2.316-0.491,9.751-0.491,12.314
		L184.951,193.302L184.951,193.302z"/>
</g>
</svg>
